#!OML:ASF H:\GeneralSubjects\Female5\Project 1\Capture day 1\Session 1\Female5.ASF
:FULLY-SPECIFIED
:DEGREES
511
root 20.8724 15.8635 18.0153 -174.067 56.4265 -180.52
lowerback 15.1438 2.94837 0.403773
upperback -13.5011 4.6247 -2.1338
thorax -24.477 1.81917 -4.55366
lowerneck -9.64955 -1.17543 6.91855
upperneck 45.619 4.5902 -6.35569
head 19.5759 4.06001 -2.9566
rclavicle 1.72943e-014 -3.10104e-014
rhumerus -60.1657 6.88693 -85.2316
rradius 38.7745
rwrist -8.7511
rhand -24.1711 -18.499
rfingers 7.12502
rthumb 2.31212 -48.4663
lclavicle 1.72943e-014 -3.10104e-014
lhumerus -56.838 -9.7711 77.7115
lradius 43.8264
lwrist -2.69993
lhand -26.2862 25.918
lfingers 7.12502
lthumb 0.26932 55.8975
rfemur -21.2824 20.4681 13.6299
rtibia 17.2309
rfoot -16.1737 -4.47904
rtoes -16.6404
lfemur -10.0284 -22.5506 -33.3764
ltibia 18.5674
lfoot -11.5429 -1.48292
ltoes -37.2509
512
root 21.0552 15.8648 18.0646 -174.044 53.7613 -180.715
lowerback 14.7746 2.78632 -0.169624
upperback -13.4263 4.30013 -1.90792
thorax -24.1955 1.83989 -3.80776
lowerneck -9.57334 -1.43108 6.5193
upperneck 45.3326 4.29906 -6.38467
head 19.3059 3.87438 -2.93642
rclavicle 6.41081e-014 7.91163e-014
rhumerus -60.4332 6.41159 -84.3002
rradius 38.9646
rwrist -8.16338
rhand -24.0043 -18.4018
rfingers 7.12502
rthumb 2.47322 -48.3672
lclavicle 6.41081e-014 7.91163e-014
lhumerus -56.6969 -9.33784 77.9995
lradius 43.9316
lwrist -2.76837
lhand -26.1815 24.7478
lfingers 7.12502
lthumb 0.370414 54.7272
rfemur -21.5556 21.9919 12.3879
rtibia 16.33
rfoot -14.5462 -2.10352
rtoes -14.2058
lfemur -9.76085 -23.7146 -33.1672
ltibia 18.483
lfoot -10.618 -1.95671
ltoes -37.597
513
root 21.2317 15.8669 18.1135 -173.374 50.9723 -179.954
lowerback 14.6687 2.53308 0.0694738
upperback -13.3118 4.08012 -1.5302
thorax -23.9795 1.76808 -3.40402
lowerneck -9.78544 -1.63507 5.98146
upperneck 45.1871 4.13321 -6.39596
head 19.2337 3.71745 -2.86147
rclavicle 1.10325e-013 6.99722e-014
rhumerus -60.4958 7.55882 -84.7814
rradius 38.4484
rwrist -9.10883
rhand -24.6832 -18.6916
rfingers 7.12502
rthumb 1.81751 -48.6636
lclavicle 1.10325e-013 6.99722e-014
lhumerus -56.048 -8.98543 78.516
lradius 43.6487
lwrist -2.60854
lhand -25.9043 24.141
lfingers 7.12502
lthumb 0.638172 54.1198
rfemur -21.4827 22.9067 12.2285
rtibia 15.7282
rfoot -12.7239 -0.250608
rtoes -12.4122
lfemur -9.59526 -24.6656 -32.286
ltibia 18.677
lfoot -9.58817 -2.62777
ltoes -38.0703
514
root 21.4126 15.8787 18.1636 -173.08 48.1883 -179.664
lowerback 14.5965 2.26655 -0.0615275
upperback -13.2248 3.7443 -1.17634
thorax -23.857 1.70637 -2.7859
lowerneck -9.98081 -1.78989 5.6407
upperneck 45.0951 4.11376 -6.59278
head 19.225 3.64168 -2.88852
rclavicle 8.15017e-015 -2.46493e-014
rhumerus -60.6466 8.37959 -84.8315
rradius 38.2163
rwrist -9.4972
rhand -24.8294 -18.9444
rfingers 7.12502
rthumb 1.67629 -48.9175
lclavicle 8.15017e-015 -2.46493e-014
lhumerus -55.9324 -8.4555 78.6333
lradius 43.6066
lwrist -2.59548
lhand -25.1556 25.0413
lfingers 7.12502
lthumb 1.36127 55.0167
rfemur -21.1714 23.0637 12.1997
rtibia 15.333
rfoot -10.4859 0.972266
rtoes -8.27927
lfemur -9.56854 -25.7336 -31.6173
ltibia 19.0523
lfoot -8.78569 -3.28097
ltoes -38.9044
515
root 21.5911 15.8887 18.2106 -172.779 45.4345 -179.434
lowerback 14.4883 1.99366 -0.086863
upperback -13.1836 3.42721 -0.87371
thorax -23.7565 1.62891 -2.29907
lowerneck -10.1519 -1.92996 5.25154
upperneck 45.062 4.12403 -6.69683
head 19.2493 3.58952 -2.85449
rclavicle 9.99887e-014 4.6118e-014
rhumerus -60.8119 8.76268 -84.5796
rradius 38.0255
rwrist -9.69475
rhand -24.62 -18.6681
rfingers 7.12502
rthumb 1.87857 -48.6396
lclavicle 9.99887e-014 4.6118e-014
lhumerus -55.6341 -7.3166 78.2722
lradius 43.3044
lwrist -3.35852
lhand -24.5611 25.2554
lfingers 7.12502
lthumb 1.93542 55.2264
rfemur -20.6794 23.0636 12.3124
rtibia 14.9033
rfoot -8.58504 0.845027
rtoes -4.1556
lfemur -9.72546 -26.9399 -30.9586
ltibia 19.5342
lfoot -8.20299 -3.87059
ltoes -39.5799
516
root 21.769 15.8979 18.2702 -172.337 42.5633 -179.021
lowerback 14.4358 1.71812 0.0187961
upperback -13.1563 3.14917 -0.545928
thorax -23.7043 1.5472 -1.87754
lowerneck -10.343 -2.20926 4.86378
upperneck 45.0238 3.9501 -6.92188
head 19.2587 3.44652 -2.91553
rclavicle -6.87795e-014 -2.38542e-014
rhumerus -61.0529 9.07971 -84.3804
rradius 37.9227
rwrist -9.88721
rhand -24.5446 -18.6707
rfingers 7.12502
rthumb 1.95136 -48.6415
lclavicle -6.87795e-014 -2.38542e-014
lhumerus -55.4024 -6.80638 78.36
lradius 43.2234
lwrist -3.56086
lhand -24.5637 25.2097
lfingers 7.12502
lthumb 1.93298 55.1806
rfemur -20.0078 22.0523 13.1761
rtibia 15.0782
rfoot -7.21784 0.596142
rtoes 0.42529
lfemur -10.1333 -27.9606 -29.9481
ltibia 20.0408
lfoot -7.45793 -4.47346
ltoes -40.0125
517
root 21.9518 15.9081 18.3387 -172.101 39.6317 -178.777
lowerback 14.4765 1.44724 -0.273934
upperback -13.1292 2.78608 -0.158251
thorax -23.7423 1.50413 -1.13325
lowerneck -10.194 -2.46479 4.64976
upperneck 44.7104 3.80602 -7.33567
head 18.9999 3.31423 -3.08831
rclavicle 6.77359e-014 2.52457e-014
rhumerus -61.3195 9.47171 -84.1887
rradius 37.8014
rwrist -9.95824
rhand -24.62 -18.9527
rfingers 7.12502
rthumb 1.87861 -48.9242
lclavicle 6.77359e-014 2.52457e-014
lhumerus -55.3744 -6.81365 78.8361
lradius 43.3963
lwrist -3.23685
lhand -24.6681 26.0448
lfingers 7.12502
lthumb 1.83211 56.0167
rfemur -19.0358 21.5555 13.9936
rtibia 15.368
rfoot -7.96966 0.0240307
rtoes 3.34001
lfemur -10.5213 -28.9055 -28.9541
ltibia 20.4416
lfoot -6.74332 -4.96855
ltoes -40.4794
518
root 22.1383 15.9159 18.3984 -172.12 36.7913 -178.89
lowerback 14.4806 1.18135 -0.655415
upperback -13.1016 2.37903 0.0934063
thorax -23.7388 1.44123 -0.47954
lowerneck -10.0836 -2.64113 4.33335
upperneck 44.5614 3.73864 -7.43359
head 18.8611 3.2499 -3.0721
rclavicle -2.55935e-014 -3.55825e-014
rhumerus -61.4828 9.73741 -83.9796
rradius 37.5051
rwrist -9.89881
rhand -24.4305 -18.7986
rfingers 7.12502
rthumb 2.06158 -48.7683
lclavicle -2.55935e-014 -3.55825e-014
lhumerus -55.1027 -6.4223 78.8744
lradius 43.155
lwrist -3.50322
lhand -24.6699 26.334
lfingers 7.12502
lthumb 1.83043 56.3059
rfemur -17.7476 20.8059 14.7125
rtibia 15.4217
rfoot -9.96952 -0.0244962
rtoes 2.83699
lfemur -10.7903 -29.9188 -28.3742
ltibia 20.8288
lfoot -6.23816 -5.3281
ltoes -40.9829
519
root 22.3287 15.9248 18.4526 -172.237 34.0402 -179.237
lowerback 14.4002 0.943684 -1.06742
upperback -13.0677 1.9765 0.210715
thorax -23.6499 1.36805 0.0359567
lowerneck -9.94968 -2.79651 3.63304
upperneck 44.4676 3.54908 -6.9255
head 18.7155 3.14529 -2.71041
rclavicle 3.78561e-014 6.85807e-015
rhumerus -61.5291 10.0485 -83.9087
rradius 37.0109
rwrist -10.0767
rhand -24.3595 -18.4501
rfingers 7.12502
rthumb 2.13014 -48.4192
lclavicle 3.78561e-014 6.85807e-015
lhumerus -54.6556 -5.66836 78.6183
lradius 42.6959
lwrist -4.23015
lhand -24.6546 25.9395
lfingers 7.12502
lthumb 1.8452 55.9112
rfemur -16.1262 19.3449 15.4986
rtibia 14.4613
rfoot -11.4618 -0.626281
rtoes 0.867696
lfemur -11.0432 -30.8627 -28.0409
ltibia 21.1653
lfoot -5.70866 -5.73115
ltoes -41.6359
